<?xml version="1.0" encoding="UTF-8"?>
<!DOCTYPE svg PUBLIC "-//W3C//DTD SVG 1.1//EN" "http://www.w3.org/Graphics/SVG/1.1/DTD/svg11.dtd">
<!-- Creator: CorelDRAW 2020 (64-Bit) -->
<svg xmlns="http://www.w3.org/2000/svg" xml:space="preserve" width="19.1671in" height="19.1671in" version="1.1" style="shape-rendering:geometricPrecision; text-rendering:geometricPrecision; image-rendering:optimizeQuality; fill-rule:evenodd; clip-rule:evenodd"
viewBox="0 0 14427.01 14427"
 xmlns:xlink="http://www.w3.org/1999/xlink"
 xmlns:xodm="http://www.corel.com/coreldraw/odm/2003">
 <defs>
  <style type="text/css">
   <![CDATA[
    .fil3 {fill:red}
    .fil1 {fill:#FFD500}
    .fil2 {fill:red;fill-rule:nonzero}
    .fil0 {fill:url(#id0)}
   ]]>
  </style>
  <linearGradient id="id0" gradientUnits="userSpaceOnUse" x1="7095.45" y1="2996.35" x2="7095.45" y2="11450.23">
   <stop offset="0" style="stop-opacity:1; stop-color:red"/>
   <stop offset="0.658824" style="stop-opacity:1; stop-color:#FF0500"/>
   <stop offset="1" style="stop-opacity:1; stop-color:#FFD500"/>
  </linearGradient>
 </defs>
 <g id="Layer_x0020_1">
  <metadata id="CorelCorpID_0Corel-Layer"/>
  <g id="_1786579460640">
   <path class="fil0" d="M7198.07 4094c72.83,-395.76 271.45,-751.99 467.71,-1097.64 -332.02,396.65 -585.07,879.18 -623.83,1402.28 -22.98,261.86 16.32,522.8 55.6,781.15 1.8,13.04 3.8,25.87 5.81,39 39.97,264.75 70.84,531.81 68.22,799.77 -3.8,85 -13.42,177.09 -66.13,247.23 -35.57,50.41 -106.6,63.24 -160.75,38.19 -106.31,-44.6 -178.86,-140.4 -242.31,-232.4 -152.32,-234.78 -178.86,-528.03 -145.91,-800.39 51.52,-410.07 207.94,-796.81 363.7,-1176.6 -258.88,452.26 -476.73,945.69 -511.39,1471.92 -21.56,378.31 43.09,777.35 259.53,1095.93 75.98,120.63 177.3,226.88 230.6,361.46 90.9,223.96 80.08,473.82 35.27,707.1 -20.14,113.94 -53.62,225.46 -87.1,337.01 -56.51,188.42 -113.03,376.3 -104.51,575.81 -1.8,307.55 145,586.25 298.23,843.39 15.72,30.58 33.18,60.62 50.62,91.19 60.91,105.42 122.94,212.85 121.75,338.11 1.19,101.61 -67.84,203.55 -169.77,225.99 -118.84,34.37 -244.4,-20.05 -329.09,-103.94 -128.77,-124.06 -187.29,-302.33 -210.86,-475.32 -25.66,-183.47 -6.4,-367.26 12.54,-550.45 6.32,-61.73 12.75,-123.26 17.43,-184.99 46.01,-518.39 74.56,-1048.42 -43.09,-1559.9 -75.45,-330.2 -225.46,-644.48 -449.66,-899.32 87.9,209.66 180.28,417.9 246.05,636.07 77.46,254.23 122.05,527.2 68.14,790.75 -19.76,75.39 -50.32,168.89 -132.79,194.52 -83.59,16.34 -142.7,-65.83 -172.37,-132.49 -244.11,-583.4 -321.56,-1239.52 -194.61,-1860.43 60.02,-308.75 170.07,-606.1 306.75,-888.88 -237.11,272.28 -401.64,603.98 -490.53,953.21 -118.25,458.09 -106.83,940.7 -28.47,1404.69 49.8,309.86 142.41,610.7 239.63,908.34 159.04,496.03 265.34,1019.34 214.13,1541.55 -15.22,109.52 -37.28,228.06 -116.24,310.76 -56.51,62.03 -157.24,57.93 -218.15,4.69 -141.22,-111.02 -198.33,-293.63 -233.01,-462.79 -50.38,-287.79 -31.15,-577.82 -11.92,-867.93 9.62,-146.8 19.53,-293.6 20.14,-440.04 7.23,-332.89 -45.48,-685.63 -250.53,-958.52 54.8,287.73 80.08,583.34 51.29,876.05 -21.03,245.84 -91.47,483.75 -124.95,727.86 -62.33,424.89 -75.45,867.85 47.49,1283.5 89.69,306.66 264.69,589.17 506.47,798.59 901.43,334.27 1860.3,364.51 2893.75,-0.3 209.44,-259.83 380.93,-551.65 490.15,-867.64 170.66,-482.02 198.09,-1006.83 127.57,-1510.98 -125.77,-437.74 -327.31,-848.4 -529.74,-1254.67 -101.4,-197.12 -164.56,-413.27 -188.18,-633.45 -44.81,-392.85 11.92,-787.47 76.34,-1174.59 -93.48,239.71 -167.74,488.44 -200.1,744.47 -48.61,369.9 -4.33,748.21 108.04,1102.65 147.99,463.08 296.81,933.09 325.07,1421.81 21.54,322.09 -26.84,652.38 -162.25,946.83 -52.12,103.41 -141.81,217.26 -270.86,207.94 -121.76,-9.64 -186.7,-137.2 -209.95,-243.45 -66.15,-353.83 -23.94,-721.4 82.68,-1063.34 117.36,-387.92 168.06,-807.91 67.84,-1205.15 -32.27,-139.19 -97.52,-267.67 -133.68,-405.45 -59.43,-213.75 -70.46,-440.04 -41.61,-659.61 36.99,-297.11 147.33,-577.02 235.31,-860.62 110.64,-358.25 132.79,-748.18 29.97,-1110.56 -101.91,-372.48 -316.57,-701.88 -555.97,-1000.4 153.5,302.63 324.46,603.77 394.33,939.58 55.39,242.61 40.18,498.86 -36.39,735.36 -33.16,98.42 -64.33,204.75 -142.41,278.18 -43.09,-18.64 -58.82,-63.8 -66.72,-106.31 -59.64,-304.95 -22.98,-619.2 41.38,-920.05 -108.34,205.34 -175.06,431.61 -203.02,662 -43.69,360.87 -11.33,725.45 31.47,1084.9 59.41,483.14 146.8,962.85 186.98,1448.29 4.1,104 3.8,215.85 -48.31,308.75 -15.72,31.45 -55.92,45.99 -83.88,20.36 -70.23,-61.44 -95.87,-156.35 -126.95,-241.12 -61.82,-173.88 -52.71,-358.55 -44,-540.56 1.71,-34.07 3.21,-68.43 4.33,-102.2 15.13,-285.11 -10.44,-572.92 -85.3,-848.7 -42.27,-156.35 -99.31,-308.14 -156.72,-459.28 16.61,115.33 42.27,229.48 58.23,344.83 52.18,346.54 57.4,701.29 -2.3,1047.03 -7.02,47.49 -17.16,94.6 -27.37,141.79 -18.94,87.39 -37.87,175.08 -36.1,265.07 2.03,243.2 97.53,472.4 203.55,686.75 147.92,266.17 195.43,594.16 102.23,886.28 -20.94,73.95 -87.39,160.43 -174.76,124.06 -107.15,-45.19 -192.75,-131.37 -267.29,-218.45 -219.65,-290.64 -243.51,-674.83 -227.79,-1025.79 -2.3,-101.02 27.37,-196 57.34,-291.21 14.92,-47.19 29.76,-94.09 40.49,-142.11 106.31,-385.03 157.6,-789.86 104.89,-1188.31 -49.49,-333.42 -39.65,-675.33 29.08,-1005.33 11.41,-47.19 23.33,-94.41 35.27,-141.81 82.68,-329.7 166.86,-664.39 125.24,-1006.32 -18.64,-198.01 -83.35,-387.31 -139.26,-576.93 54.19,304.65 106.9,619.81 35.26,926.16 -22.74,85.39 -41.09,180.89 -106.63,244.04 -66.63,52.18 -121.67,-39.29 -142.09,-93.41 -90.01,-242.62 -90.9,-510.88 -46.31,-763.11zm2510.77 4242.58c-14.28,195.01 -41.3,355.87 -117.84,533.19 139.42,-209.12 236.17,-455.55 227.27,-710.26 -5.22,-244.31 -110.75,-522.91 -202.88,-747.75 13.89,144.51 -102.98,336.19 30.79,558.67 56.29,112.44 70.88,241.97 62.66,366.15zm-269.42 -2353.44c-33.93,334.8 -175.39,645.15 -315.58,946.53 249.91,-353.07 428.18,-772.38 425.1,-1211.01 2.75,-420.56 -165.42,-904.92 -313.12,-1296.16 -90.4,416.14 -232.03,952.2 -146.79,1368.21 28.93,163.78 95.68,317.19 155.1,471.46 -65.78,-250.27 -131.03,-509.39 -92.04,-769.57 13.18,-72.71 22.01,-153.55 72.36,-210.62 52.01,-48 104.07,24.52 124.75,68.25 91.44,196.14 110.33,419.68 90.22,632.92zm-3048.57 -1360.98c-36.88,192.02 -52.59,354.38 -24.76,545.5 -80.3,-238.17 -109.68,-501.27 -34.9,-744.92 68.53,-234.56 242.82,-476.17 390.21,-669.35 -50.96,135.94 12.09,351.4 -174.9,531.48 -83.57,93.95 -131.33,215.24 -155.65,337.29zm-1909.25 2996.65c33.93,334.8 175.38,645.15 315.58,946.53 -249.91,-353.07 -428.18,-772.38 -425.1,-1211.01 -2.74,-420.56 165.42,-904.92 313.12,-1296.16 90.39,416.14 232.03,952.2 146.79,1368.21 -28.93,163.78 -95.68,317.19 -155.1,471.46 65.78,-250.27 131.03,-509.39 92.04,-769.57 -13.18,-72.71 -22.01,-153.55 -72.36,-210.62 -52.01,-48 -104.07,24.52 -124.75,68.25 -91.44,196.14 -110.32,419.68 -90.22,632.92z"/>
   <g>
    <path class="fil1" d="M5698.49 3621.01c-465.7,196.89 -878.16,475.09 -1237.22,834.14 -359.08,359.08 -637.25,771.54 -834.16,1237.22 -203.84,482.25 -306.07,987.3 -306.07,1515.03 0,528.01 102.23,1032.99 306.07,1515.01 196.91,465.7 475.09,878.14 834.16,1237.22 172.14,172.16 356.46,325.6 553.07,460.48l-7.9 -27.96 -2.32 -8.43 -19.23 -79.55 -1.71 -9.03 -16.34 -80.38 -1.71 -8.73 -3.48 -22.42c-135.47,-102.82 -264.16,-215.25 -386.51,-337.54 -344.54,-344.53 -611.02,-739.75 -799.71,-1186.28 -195.43,-462.19 -293.33,-946.22 -293.33,-1452.39 0,-506.17 97.9,-990.22 293.33,-1452.39 188.69,-446.23 455.17,-841.77 799.71,-1186.01 344.22,-344.24 739.46,-611 1185.99,-799.71 406.27,-171.85 829.45,-267.97 1269.79,-288.91l106.03 -164.55c-500.07,9.32 -979.78,111.25 -1438.44,305.18z"/>
    <path class="fil1" d="M8728.51 3621.01c465.7,196.89 878.16,475.09 1237.22,834.14 359.08,359.08 637.25,771.54 834.16,1237.22 203.84,482.25 306.07,987.3 306.07,1515.03 0,528.01 -102.23,1032.99 -306.07,1515.01 -196.91,465.7 -475.09,878.14 -834.16,1237.22 -186.09,186.41 -386.72,350.94 -601.68,493.34l12.83 -34.36 6.93 -20.06 26.25 -77.76 2.3 -7.02 23.86 -78.37 2.09 -7.23 8.12 -30.05c142.11,-106.54 277.28,-224.26 405.44,-352.06 344.54,-344.53 611.02,-739.75 799.71,-1186.28 195.43,-462.19 293.33,-946.22 293.33,-1452.39 0,-506.17 -97.9,-990.22 -293.33,-1452.39 -188.69,-446.23 -455.17,-841.77 -799.71,-1186.01 -344.22,-344.24 -739.46,-611 -1185.99,-799.71 -141.81,-60.02 -285.93,-111.02 -432.14,-152.32l-90.88 -190.8c198.92,48.93 394.03,113.85 585.64,194.84z"/>
   </g>
   <path class="fil2" d="M2444.99 3078.14l-296.22 410.67 148.81 107.13 50.7 -70.14 395.24 285.1c71.35,51.59 89.99,128.46 35.78,203.61 -54.72,75.98 -133.67,82.38 -205.03,30.88l-395.15 -285.13 50.62 -70.23 -148.81 -107.13 -296.16 410.58 148.83 107.21 49.8 -69.03 385.56 278.18c187.89,135.68 429.9,71.35 597.35,-160.83 166.64,-230.6 151.43,-480.52 -36.69,-616.22l-385.6 -278.17 49.79 -68.96 -148.81 -107.51zm9453.35 1169.46l-74.32 50.95c-0.59,0.6 -1.19,0.89 -2.09,1.19 -0.59,0.61 -1.42,0.91 -2.01,1.2 -0.89,0.23 -1.5,0.53 -2.31,0.82 -0.91,0.3 -1.51,0.3 -2.39,0.6 -0.82,0.29 -1.42,0.29 -2.33,0.29 -0.8,0.3 -1.71,0.3 -2.31,0.3 -0.89,0 -1.72,0 -2.6,-0.3 -0.61,0 -1.5,0 -2.32,-0.29 -0.6,0 -1.48,-0.3 -2.39,-0.3 -0.6,-0.3 -1.42,-0.59 -2.31,-0.89 -0.6,-0.23 -1.42,-0.53 -2.01,-1.12 -0.91,-0.31 -1.5,-0.61 -2.09,-1.2 -0.83,-0.3 -1.42,-0.89 -2.01,-1.42 -0.61,-0.29 -1.2,-0.89 -1.71,-1.48 -0.61,-0.61 -1.21,-1.21 -1.8,-1.73 -0.3,-0.59 -0.89,-1.18 -1.42,-2.07l-93.86 -136.7c-0.6,-0.6 -0.89,-1.42 -1.21,-2.02 -0.59,-0.61 -0.89,-1.5 -1.1,-2.03 -0.32,-0.89 -0.61,-1.48 -0.91,-2.39 -0.3,-0.8 -0.6,-1.41 -0.6,-2.3 -0.29,-0.89 -0.29,-1.42 -0.29,-2.31 -0.3,-0.91 -0.3,-1.8 -0.3,-2.33 0,-0.89 0,-1.78 0,-2.68 0.3,-0.51 0.3,-1.42 0.3,-2.31 0.29,-0.59 0.59,-1.42 0.59,-2.31 0.3,-0.61 0.59,-1.5 0.89,-2.32 0.32,-0.59 0.53,-1.48 0.82,-2.1 0.59,-0.8 0.91,-1.41 1.51,-2.01 0.3,-0.89 0.89,-1.48 1.18,-2.01 0.53,-0.59 1.12,-1.21 1.71,-1.8 0.61,-0.59 1.21,-1.12 1.71,-1.72 0.61,-0.29 1.21,-0.89 1.8,-1.48l210.73 -144.54c0.59,-0.59 1.48,-0.89 2.01,-1.48 0.89,-0.3 1.48,-0.61 2.39,-0.91 0.51,-0.21 1.42,-0.51 2.01,-0.8 0.89,-0.32 1.72,-0.61 2.31,-0.61 0.91,-0.3 1.8,-0.3 2.39,-0.6 0.82,0 1.71,0 2.62,0 0.51,0 1.42,0 2.31,0 0.89,0 1.41,0.3 2.31,0.3 0.91,0.3 1.5,0.3 2.33,0.59 0.89,0.32 1.48,0.61 2.39,0.91 0.51,0.21 1.41,0.51 2.01,0.82 0.89,0.59 1.48,0.89 2.01,1.48 0.91,0.3 1.5,0.89 2.1,1.12 0.59,0.59 1.12,1.21 1.71,1.8 0.59,0.6 1.21,1.18 1.8,1.71 0.51,0.59 0.83,1.19 1.42,1.8l134.08 195.26 118.34 -81.03 -134.07 -195.28c-0.6,-0.89 -0.89,-1.48 -1.5,-2.08 -0.21,-0.82 -0.51,-1.41 -0.82,-2.32 -0.59,-0.6 -0.59,-1.42 -0.89,-2.31 -0.3,-0.59 -0.59,-1.5 -0.59,-2.01 -0.3,-0.91 -0.3,-1.8 -0.59,-2.63 0,-0.59 0,-1.48 0,-2.39 0,-0.82 0,-1.42 0,-2.31 0,-0.89 0.29,-1.71 0.29,-2.3 0.3,-0.91 0.3,-1.8 0.59,-2.39 0.3,-0.82 0.59,-1.42 0.89,-2.33 0.3,-0.83 0.61,-1.42 0.91,-2.31 0.21,-0.59 0.83,-1.21 1.12,-2.01 0.6,-0.61 0.89,-1.2 1.48,-1.8 0.59,-0.59 1.12,-1.42 1.71,-2.01 0.3,-0.59 0.91,-0.91 1.8,-1.5 0.53,-0.51 1.12,-1.12 1.71,-1.42l180.42 -123.86c0.61,-0.6 1.5,-0.89 2.03,-1.48 0.59,-0.32 1.48,-0.61 2.07,-0.91 0.82,-0.21 1.42,-0.53 2.33,-0.83 0.89,-0.29 1.48,-0.59 2.3,-0.59 0.89,-0.3 1.51,-0.3 2.31,-0.59 0.91,0 1.8,0 2.39,0 0.83,0 1.71,0 2.62,0 0.59,0 1.42,0.29 2.31,0.29 0.89,0.3 1.5,0.3 2.3,0.6 0.61,0.29 1.5,0.59 2.39,0.91 0.53,0.21 1.42,0.51 2.03,0.81 0.89,0.61 1.48,0.91 2.01,1.2 0.89,0.6 1.48,1.12 2.1,1.42 0.51,0.59 1.12,1.18 1.71,1.8 0.59,0.59 1.19,1.1 1.78,1.71 0.53,0.6 0.83,1.19 1.42,1.78l90.67 132c0.3,0.6 0.89,1.51 1.19,2.1 0.23,0.51 0.82,1.42 1.12,2.01 0.29,0.89 0.59,1.71 0.89,2.31 0,0.91 0.32,1.5 0.61,2.33 0,0.89 0.3,1.48 0.3,2.39 0,0.8 0.21,1.71 0.21,2.31 0,0.89 0,1.71 -0.21,2.6 0,0.61 0,1.5 -0.3,2.33 0,0.89 -0.29,1.48 -0.61,2.39 0,0.82 -0.29,1.41 -0.59,2.31 -0.29,0.59 -0.89,1.42 -1.18,2.01 -0.23,0.91 -0.53,1.5 -1.12,2.1 -0.3,0.82 -0.89,1.42 -1.5,2.01 -0.59,0.61 -0.82,1.12 -1.42,1.71 -0.6,0.62 -1.18,1.21 -1.78,1.8 -0.53,0.6 -1.41,0.83 -2.03,1.42l-59.75 41.12 99.68 144.82 188.33 -129.68 -429.63 -625.19 -111.1 76.1 36.19 52.45c0.3,0.59 0.89,1.42 1.12,2.01 0.29,0.91 0.89,1.5 1.18,2.39 0.3,0.53 0.61,1.42 0.91,2.03 0,0.89 0.29,1.71 0.59,2.3 0,0.89 0.3,1.8 0.3,2.31 0,0.91 0,1.8 0.23,2.62 0,0.6 -0.23,1.48 -0.23,2.39 0,0.82 0,1.42 -0.3,2.31 0,0.89 -0.3,1.5 -0.59,2.31 -0.3,0.91 -0.3,1.5 -0.62,2.39 -0.3,0.53 -0.89,1.42 -1.19,2.03 -0.29,0.89 -0.82,1.41 -1.12,2.01 -0.59,0.89 -0.89,1.48 -1.48,2.09 -0.61,0.51 -0.82,1.12 -1.42,1.72 -0.61,0.59 -1.21,1.18 -1.8,1.71 -0.59,0.59 -1.42,0.89 -2.01,1.48l-544.78 374.28c-0.59,0.51 -1.19,0.83 -2.01,1.12 -0.59,0.59 -1.5,0.89 -2.09,1.19 -0.82,0.3 -1.42,0.59 -2.31,0.89 -0.89,0.23 -1.42,0.53 -2.3,0.53 -0.91,0.3 -1.5,0.3 -2.33,0.3 -0.89,0.3 -1.48,0.3 -2.39,0.3 -0.82,0 -1.71,0 -2.31,0 -0.89,-0.3 -1.71,-0.3 -2.62,-0.59 -0.6,0 -1.48,-0.29 -2.31,-0.29 -0.6,-0.23 -1.48,-0.53 -2.1,-0.83 -0.8,-0.3 -1.71,-0.59 -2.31,-0.89 -0.59,-0.59 -1.42,-0.89 -2.01,-1.5 -0.61,-0.21 -1.51,-0.8 -2.03,-1.12 -0.59,-0.59 -1.18,-1.19 -1.78,-1.78 -0.59,-0.53 -1.21,-1.12 -1.72,-1.71 -0.29,-0.61 -0.91,-1.21 -1.5,-2.03l-35.81 -52.22 -111.1 76.1 432.24 629 202.88 -139.36 -98.48 -143.64zm32.3 -1184.23l-330.75 -316.29 -92.98 97.08 44.84 43.13c0.59,0.59 1.2,1.19 1.8,1.78 0.53,0.53 0.82,1.12 1.42,1.71 0.3,0.91 0.89,1.5 1.19,2.03 0.61,0.89 0.91,1.48 1.12,2.39 0.29,0.5 0.59,1.42 0.91,2.01 0.29,0.89 0.29,1.71 0.59,2.31 0.3,0.91 0.3,1.8 0.3,2.39 0.3,0.83 0.3,1.71 0.3,2.62 0,0.51 0,1.42 0,2.31 0,0.89 -0.3,1.42 -0.3,2.31 -0.3,0.91 -0.3,1.5 -0.6,2.33 -0.29,0.89 -0.61,1.48 -0.91,2.39 -0.29,0.51 -0.51,1.42 -0.8,2.01 -0.32,0.89 -0.91,1.48 -1.2,2.31 -0.3,0.59 -0.89,1.21 -1.48,1.8 -0.23,0.82 -0.83,1.42 -1.44,2.01l-336.96 352.42c-35.51,37.01 -74.91,56.77 -117.44,59.16 -44.61,2.33 -85.96,-14.62 -123.86,-50.74 -38.49,-36.7 -57.44,-77.52 -57.15,-122.14 0.3,-43.13 18.36,-83.04 53.96,-120.35l336.95 -352.41c0.53,-0.59 1.12,-1.1 1.71,-1.42 0.6,-0.59 1.21,-1.19 1.72,-1.48 0.91,-0.59 1.5,-0.82 2.1,-1.41 0.89,-0.3 1.41,-0.6 2.3,-0.91 0.61,-0.6 1.51,-0.89 2.33,-0.89 0.59,-0.3 1.48,-0.59 2.1,-0.82 0.8,0 1.71,-0.3 2.6,-0.3 0.59,0 1.42,0 2.3,-0.3 0.91,0 1.51,0 2.33,0.3 0.89,0 1.78,0 2.39,0.3 0.8,0 1.71,0.23 2.3,0.53 0.89,0 1.71,0.3 2.31,0.59 0.91,0.3 1.5,0.6 2.32,0.91 0.59,0.6 1.19,0.89 2.08,1.42 0.52,0.3 1.12,0.89 2.03,1.19 0.59,0.59 1.19,1.21 1.71,1.72l44.92 42.92 92.96 -97.38 -330.84 -316.23 -92.98 97.3 43.74 42.02c0.59,0.59 1.18,1.19 1.78,1.72 0.61,0.59 1.12,1.18 1.42,1.78 0.61,0.61 0.91,1.42 1.5,2.03 0.3,0.89 0.59,1.48 0.89,2.01 0.23,0.89 0.53,1.8 0.82,2.39 0.3,0.82 0.59,1.42 0.59,2.3 0.29,0.89 0.29,1.72 0.61,2.31 0,0.91 0,1.8 0,2.39 0,0.83 0,1.73 0,2.62 0,0.53 0,1.42 -0.32,2.31 0,0.91 -0.29,1.42 -0.59,2.33 0,0.89 -0.3,1.48 -0.59,2.31 -0.3,0.59 -0.53,1.48 -1.12,2.09 -0.3,0.83 -0.6,1.42 -1.19,2.01 -0.32,0.89 -0.91,1.5 -1.42,2.01 -0.31,0.59 -0.91,1.2 -1.5,1.8l-328.75 343.89c-74.91,78.43 -105.82,170.49 -92.69,276.01 13.37,107.6 69.63,208.99 168.7,303.75 98.88,94.4 202.29,146.03 310.18,154.46 106.03,8.12 196.41,-26.8 271.3,-105.2l329.06 -343.68c0.59,-0.53 1.19,-1.12 1.8,-1.74 0.59,-0.59 1.18,-1.18 1.71,-1.48 0.59,-0.53 1.48,-0.82 2.07,-1.42 0.82,-0.3 1.44,-0.59 2.33,-0.89 0.59,-0.32 1.42,-0.61 2.01,-0.82 0.89,-0.3 1.8,-0.6 2.39,-0.6 0.82,-0.31 1.71,-0.31 2.3,-0.61 0.91,0 1.72,0 2.62,0 0.6,0 1.42,0 2.31,0 0.91,0 1.5,0 2.33,0.3 0.89,0 1.48,0.31 2.37,0.61 0.83,0 1.42,0.3 2.32,0.51 0.6,0.3 1.42,0.61 2.01,1.2 0.89,0.3 1.5,0.6 2.39,1.19 0.53,0.3 1.12,0.83 1.71,1.42 0.6,0.3 1.21,0.91 1.72,1.5l44.04 41.92 92.96 -97.29zm-1336.05 -567.81c74,-127.08 91.54,-256.16 52.45,-387.34 -39.93,-133.78 -130.58,-241.9 -272.21,-324.43 -142.2,-82.74 -281.28,-108.71 -417.39,-77.52 -133.48,30.29 -237.57,109.31 -311.59,236.38 -76.93,132.06 -96.76,264.07 -59.77,396.42 38.22,135.2 129.46,244.83 273.48,328.75 82.74,48.05 168.11,74.62 257.04,79.55 1.12,0.3 2.31,0.3 3.81,0.59 1.12,0.3 2.31,0.61 3.43,1.21 1.21,0.29 2.39,0.82 3.51,1.41 0.89,0.59 2.1,1.48 2.9,2.31 1.2,0.59 2.09,1.5 3,2.39 0.8,1.12 1.41,2.01 2.3,3.22 0.59,0.83 1.12,2.01 1.72,3.19 0.59,1.12 1.2,2.33 1.5,3.45l42.83 149.22 156.83 -52.16 -37.9 -110.43c-0.3,-0.89 -0.59,-1.48 -0.59,-2.31 -0.3,-0.59 -0.62,-1.5 -0.62,-2.39 0,-0.82 -0.29,-1.41 -0.29,-2.3 0,-0.91 0,-1.74 0,-2.33 0.29,-0.89 0.29,-1.78 0.29,-2.6 0.32,-0.6 0.32,-1.5 0.62,-2.39 0.29,-0.53 0.59,-1.42 0.88,-2.01 0,-0.91 0.53,-1.74 0.83,-2.33 0.3,-0.89 0.59,-1.48 1.18,-2.1 0.3,-0.8 0.91,-1.42 1.21,-2.01 0.51,-0.59 1.12,-1.19 1.71,-1.71 0.59,-0.59 1.18,-1.19 1.72,-1.8 0.59,-0.59 1.18,-1.1 1.79,-1.42 0.59,-0.59 1.42,-0.89 2.01,-1.48 0.6,-0.29 1.48,-0.59 2.09,-1.12 0.81,-0.3 1.42,-0.59 2.31,-0.89l0.3 0c122.08,-40.82 215.12,-116.04 278.62,-225.04zm-634.53 -2.63c-63.81,-36.99 -97.38,-94.46 -100.8,-171.98 -3.22,-72.53 20.96,-153.26 72.52,-241.9 48.12,-82.15 103.79,-138.11 166.76,-167.3 67,-31.17 132.3,-28.28 195.56,8.74 64.7,37.61 100.3,93.57 106.94,167.3 6.11,69.98 -14.85,146 -62.91,228.53 -30.66,52.45 -59.18,92.37 -86.04,119.76 -0.59,0.59 -1.12,1.2 -1.71,1.8 -0.59,0.59 -1.48,0.83 -2.09,1.42 -0.51,0.59 -1.42,0.89 -2.01,1.18 -0.59,0.61 -1.42,0.91 -2.01,1.21 -0.89,0.21 -1.5,0.51 -2.31,0.83 -0.91,0.29 -1.5,0.29 -2.39,0.59 -0.82,0 -1.42,0.29 -2.33,0.29 -0.89,0 -1.71,0.3 -2.31,0.3 -0.89,0 -1.8,0 -2.62,-0.3 -0.59,0 -1.48,0 -2.37,-0.29 -0.83,0 -1.42,-0.3 -2.33,-0.59 -0.6,0 -1.42,-0.32 -2.31,-0.61 -0.59,-0.21 -1.5,-0.51 -2.01,-1.12 -0.91,-0.3 -1.5,-0.6 -2.09,-1.19 -0.91,-0.29 -1.42,-0.89 -2.01,-1.42 -0.61,-0.3 -1.2,-0.89 -1.8,-1.5 -2.92,-2.6 -4.63,-5.82 -6.11,-9.63l-37.01 -106.91 -131.71 43.42 37.02 130.29c0.3,0.59 0.59,1.42 0.59,2.3 0.23,0.59 0.23,1.5 0.23,2.31 0.29,0.91 0.29,1.5 0.29,2.33 0,0.89 -0.29,1.78 -0.29,2.39 0,0.8 -0.23,1.71 -0.23,2.31 -0.3,0.89 -0.59,1.71 -0.59,2.31 -0.3,0.91 -0.59,1.8 -0.89,2.39 -0.3,0.82 -0.91,1.42 -1.2,2.03 -0.21,0.89 -0.81,1.42 -1.13,2.01 -0.59,0.89 -1.18,1.48 -1.48,2.1 -0.59,0.51 -1.12,1.1 -1.71,1.71 -0.61,0.59 -1.21,1.18 -1.8,1.42 -0.53,0.59 -1.41,1.19 -2.01,1.48 -0.59,0.59 -1.5,0.91 -2.01,1.2 -0.91,0.51 -1.51,0.83 -2.39,1.12 -0.53,0.3 -1.42,0.59 -2.03,0.59 -3.19,0.89 -6.41,1.19 -9.63,0.89 -32,-3.51 -63.2,-14.02 -93.25,-31.79zm-747.06 -756.08c155.14,-38.41 257.13,-122.95 306.39,-253.83 18.34,-49.24 18.95,-95.58 2.01,-139.3 -16.56,-42.03 -44.55,-70.31 -84.54,-85.45 -39.32,-14.56 -76.04,-14.26 -110.13,0.91 -34.39,15.15 -58.57,41.92 -72.91,80.12 -12.22,32.7 -12.84,65.29 -1.42,98.2 11.95,34.18 33.8,57.15 66.18,69.4l5.52 2.1c0.61,0.21 1.42,0.51 2.03,0.81 0.89,0.29 1.48,0.91 2.01,1.21 0.89,0.59 1.48,0.89 2.09,1.41 0.6,0.3 1.12,0.89 1.71,1.48 0.6,0.61 1.19,1.21 1.78,1.73 0.53,0.59 1.12,1.18 1.41,1.78 0.61,0.91 0.91,1.41 1.5,2.01 0.3,0.91 0.6,1.5 1.12,2.33 0.29,0.59 0.59,1.48 0.89,2.1 0,0.8 0.3,1.71 0.59,2.3 0,0.89 0.31,1.72 0.31,2.31 0.3,0.91 0.3,1.8 0.3,2.62 0,0.59 0,1.48 0,2.39 0,0.81 -0.3,1.42 -0.3,2.31 0,0.89 -0.31,1.42 -0.61,2.31 -0.3,0.91 -0.3,1.5 -0.59,2.33 -0.3,0.89 -0.89,1.78 -1.12,2.39 -29.76,59.16 -79.91,101.69 -150.43,127.37l26.18 66.69zm-860.37 -703.54l-373.99 -34.39 -12.23 133.78 63.26 6.11c0.91,0 1.8,0 2.33,0.23 0.89,0 1.78,0.3 2.39,0.59 0.82,0 1.71,0.3 2.3,0.59 0.89,0.3 1.42,0.91 2.31,1.21 0.61,0.29 1.2,0.82 2.03,1.12 0.59,0.59 1.18,0.89 1.78,1.48 0.91,0.6 1.42,1.21 2.03,1.42 0.59,0.59 0.89,1.21 1.48,2.09 0.59,0.59 1.12,1.12 1.42,1.72 0.6,0.59 0.91,1.5 1.21,2.1 0.59,0.82 0.89,1.41 1.19,2.3 0.23,0.59 0.53,1.42 0.82,2.03 0.3,0.89 0.3,1.78 0.59,2.31 0,0.89 0.3,1.8 0.3,2.39 0,0.82 0.29,1.71 0.29,2.6 0,0.6 -0.29,1.42 -0.29,2.33l-39.62 429.93c0,0.89 -0.29,1.71 -0.29,2.3 -0.3,0.89 -0.3,1.72 -0.6,2.31 -0.29,0.91 -0.61,1.8 -0.91,2.39 -0.3,0.82 -0.59,1.41 -0.82,2.33 -0.6,0.59 -0.89,1.12 -1.48,2.01 -0.29,0.59 -0.89,1.19 -1.21,1.8 -0.51,0.51 -1.1,1.1 -1.71,1.71 -0.59,0.59 -1.19,1.19 -1.72,1.72 -0.59,0.59 -1.19,0.89 -2.1,1.48 -0.59,0.29 -1.1,0.91 -2.01,1.2 -0.59,0.53 -1.48,0.83 -2.1,1.12 -0.8,0.29 -1.42,0.59 -2.3,0.89 -0.6,0 -1.42,0.29 -2.31,0.59 -0.61,0 -1.5,0.3 -2.33,0.3 -0.89,0 -1.48,0 -2.31,0 -0.89,0 -1.8,0 -2.39,0 -1.12,0 -2.01,-0.3 -3.22,-0.6 -0.8,0 -1.71,-0.29 -2.6,-0.59 -1.21,-0.3 -2.01,-0.89 -2.92,-1.18 -0.89,-0.53 -1.71,-1.12 -2.6,-1.44 -0.89,-0.59 -1.5,-1.18 -2.33,-2.01 -0.89,-0.59 -1.48,-1.19 -2.07,-2.1 -0.83,-0.59 -1.42,-1.42 -2.03,-2.31 -0.59,-0.89 -1.18,-1.48 -1.48,-2.3l-348.31 -639.54 -396.95 -36.4 -12.23 133.78 63.26 6.11c0.82,0 1.74,0 2.33,0.3 0.89,0 1.71,0.29 2.31,0.61 0.91,0 1.8,0.3 2.39,0.59 0.83,0.3 1.42,0.82 2.31,1.12 0.62,0.3 1.12,0.89 2.03,1.19 0.59,0.6 1.19,0.89 1.78,1.42 0.53,0.59 1.12,0.89 1.71,1.5 0.61,0.59 1.2,1.18 1.73,2.01 0.59,0.6 0.89,1.19 1.48,1.8 0.29,0.59 0.91,1.42 1.2,2.01 0.51,0.89 0.81,1.48 1.13,2.31 0.3,0.59 0.59,1.5 0.89,2.1 0,0.83 0.3,1.71 0.6,2.31 0,0.91 0.29,1.71 0.29,2.32 0,0.89 0,1.78 0,2.6 0,0.59 0,1.5 0,2.39l-60.66 658.1c-0.3,0.89 -0.3,1.42 -0.59,2.31 0,0.91 -0.3,1.5 -0.59,2.33 0,0.88 -0.23,1.48 -0.53,2.39 -0.3,0.5 -0.89,1.42 -1.19,2.01 -0.32,0.89 -0.61,1.48 -1.21,2.01 -0.53,0.91 -0.82,1.5 -1.42,2.1 -0.59,0.52 -0.89,1.12 -1.48,1.71 -0.53,0.59 -1.12,1.21 -1.73,1.8 -0.89,0.51 -1.48,0.83 -2.02,1.42 -0.59,0.3 -1.48,0.89 -2.09,1.19 -0.81,0.3 -1.42,0.53 -2.31,1.12 -0.59,0.29 -1.5,0.59 -2.01,0.59 -0.91,0.3 -1.8,0.61 -2.39,0.61 -0.83,0.3 -1.71,0.3 -2.33,0.6 -0.89,0 -1.72,0 -2.6,0 -0.59,0 -1.5,0 -2.3,0l-63.28 -5.82 -12.54 134.01 375.4 34.69 12.52 -134.08 -63.49 -5.84c-0.89,-0.29 -1.48,-0.29 -2.31,-0.51 -0.89,0 -1.5,-0.29 -2.39,-0.61 -0.82,0 -1.42,-0.29 -2.3,-0.59 -0.62,-0.3 -1.42,-0.59 -2.03,-1.19 -0.89,-0.3 -1.48,-0.59 -2.08,-1.12 -0.82,-0.3 -1.42,-0.89 -2.03,-1.5 -0.59,-0.6 -1.18,-0.89 -1.71,-1.42 -0.59,-0.59 -1.18,-1.18 -1.78,-1.77 -0.32,-0.91 -0.91,-1.42 -1.44,-2.03 -0.29,-0.6 -0.89,-1.48 -1.19,-2.07 -0.3,-0.53 -0.59,-1.42 -1.18,-2.03 -0.32,-0.89 -0.53,-1.72 -0.53,-2.31 -0.3,-0.89 -0.59,-1.5 -0.59,-2.31 -0.3,-0.91 -0.3,-1.8 -0.61,-2.39 0,-0.83 0,-1.72 0,-2.63 0,-0.59 0,-1.42 0,-2.31l39.93 -432.85c0.3,-0.89 0.3,-1.72 0.6,-2.31 0,-0.89 0.3,-1.72 0.59,-2.31 0,-0.91 0.3,-1.5 0.53,-2.39 0.3,-0.83 0.59,-1.42 1.19,-2.03 0.31,-0.89 0.61,-1.42 1.2,-2.31 0.3,-0.59 0.83,-1.19 1.42,-1.8 0.59,-0.51 0.88,-1.13 1.48,-1.72 0.61,-0.59 1.12,-1.18 1.73,-1.71 0.59,-0.59 1.48,-0.89 2.07,-1.48 0.53,-0.32 1.42,-0.91 2.03,-1.21 0.59,-0.3 1.42,-0.83 2.01,-1.12 0.89,-0.29 1.8,-0.59 2.39,-0.89 0.82,0 1.42,-0.3 2.31,-0.6 0.82,0 1.71,-0.29 2.31,-0.29 0.91,0 1.73,0 2.62,0 0.59,0 1.48,0 2.31,0 0.91,0 2.09,0.29 2.98,0.59 0.83,0 2.03,0.3 2.92,0.59 0.83,0.59 1.71,0.89 2.92,1.42 0.81,0.3 1.71,0.89 2.6,1.5 0.59,0.59 1.42,1.18 2.31,1.71 0.61,0.59 1.5,1.48 2.03,2.07 0.89,0.83 1.48,1.42 2.07,2.33 0.61,0.89 1.12,1.71 1.42,2.6l342.2 641.54 314.81 29.1 75.51 -816.67c0,-0.59 0.3,-1.42 0.3,-2.31 0.21,-0.89 0.21,-1.48 0.5,-2.31 0.32,-0.91 0.62,-1.5 0.91,-2.39 0.3,-0.53 0.59,-1.41 0.89,-2.01 0.6,-0.91 0.89,-1.41 1.12,-2.03 0.6,-0.89 1.19,-1.48 1.51,-2.07 0.59,-0.53 1.19,-1.12 1.71,-1.73 0.59,-0.59 1.19,-1.19 1.78,-1.71 0.62,-0.29 1.12,-0.89 1.74,-1.48 0.89,-0.29 1.48,-0.91 2.37,-1.2 0.52,-0.3 1.12,-0.51 2.03,-0.82 0.59,-0.3 1.41,-0.6 2.3,-0.89 0.59,-0.29 1.5,-0.59 2.31,-0.59 0.61,-0.3 1.5,-0.3 2.39,-0.59 0.83,0 1.42,0 2.33,0 0.89,0 1.71,0 2.31,0l62.07 5.81 12.25 -134.01zm-1462.24 738.24l-429.34 -777.94 -316.82 46.34 -189.45 868.01c-0.3,1.19 -0.59,2.31 -1.19,3.49 -0.32,1.21 -0.91,2.33 -1.5,3.51 -0.53,0.91 -1.12,2.01 -2.01,2.92 -0.91,0.89 -1.71,2.01 -2.62,2.6 -0.89,0.91 -1.78,1.8 -2.9,2.33 -0.91,0.89 -2.09,1.48 -3.21,2.07 -0.89,0.61 -2.09,0.82 -3.22,1.12 -1.48,0.61 -2.6,0.91 -3.81,0.91l-68.78 10.22 19.54 133.19 399.05 -58.27 -19.27 -133.19 -61.46 9.03c-0.91,0 -1.8,0 -2.69,0 -0.53,0.29 -1.41,0.29 -2.33,0 -0.89,0 -1.42,0 -2.31,0 -0.91,-0.32 -1.5,-0.32 -2.33,-0.61 -0.89,-0.3 -1.48,-0.59 -2.37,-0.59 -0.83,-0.3 -1.42,-0.59 -2.33,-1.18 -0.59,-0.3 -1.18,-0.53 -2.01,-1.12 -0.59,-0.3 -1.18,-0.6 -2.09,-1.21 -0.53,-0.59 -1.12,-0.89 -1.71,-1.42 -0.6,-0.59 -1.19,-1.18 -1.71,-1.78 -0.59,-0.61 -0.89,-1.12 -1.5,-2.03 -0.59,-0.59 -0.89,-1.19 -1.42,-1.77 -0.3,-0.83 -0.6,-1.42 -1.19,-2.33 -0.29,-0.59 -0.59,-1.42 -0.89,-2.01 -0.32,-0.89 -0.32,-1.8 -0.61,-2.31 -0.3,-0.91 -0.3,-1.8 -0.51,-2.39 -0.3,-2.31 -0.3,-4.34 0,-6.73l11.63 -93.49c0,-1.48 0.3,-2.68 0.83,-4.1 0.29,-1.18 0.89,-2.31 1.48,-3.51 0.61,-1.18 1.2,-2.31 1.71,-3.51 0.91,-1.19 1.8,-2.01 2.68,-3.19 0.83,-0.91 2.03,-1.72 2.92,-2.63 1.12,-0.59 2.31,-1.48 3.51,-2.01 1.12,-0.6 2.31,-1.19 3.72,-1.5 1.2,-0.3 2.62,-0.59 3.8,-0.89l322.63 -46.93c1.51,-0.21 2.69,-0.21 4.1,-0.21 1.21,0 2.62,0 3.8,0.21 1.42,0.3 2.63,0.59 3.81,1.21 1.42,0.29 2.62,0.89 3.74,1.48 1.19,0.53 2.37,1.42 3.19,2.33 1.21,0.89 2.1,1.71 2.92,2.6 0.89,1.19 1.78,2.01 2.68,3.22 0.51,1.18 1.12,2.31 1.71,3.49l37.9 86.57c0.3,0.59 0.59,1.48 0.89,2.01 0.23,0.89 0.23,1.8 0.53,2.39 0.29,0.83 0.29,1.72 0.29,2.6 0.3,0.61 0.3,1.42 0.3,2.33 0,0.89 0,1.48 0,2.3 0,0.89 -0.3,1.8 -0.3,2.39 -0.29,0.82 -0.29,1.72 -0.59,2.31 -0.23,0.91 -0.53,1.71 -0.82,2.33 -0.3,0.89 -0.59,1.48 -0.89,2.31 -0.3,0.59 -0.91,1.19 -1.2,2.09 -0.51,0.51 -0.81,1.12 -1.42,1.71 -0.59,0.89 -1.18,1.48 -1.48,2.01 -0.53,0.6 -1.12,1.21 -1.71,1.51 -0.91,0.59 -1.5,1.18 -2.03,1.42 -0.59,0.59 -1.48,0.89 -2.08,1.48 -0.61,0.29 -1.41,0.61 -2.03,0.91 -2.07,0.8 -4.1,1.42 -6.41,2.01l-62.97 9.03 19.55 133.19 476.27 -69.31 -19.57 -133.27 -73.18 10.51c-1.12,0.29 -2.63,0.29 -3.74,0.29 -1.19,0 -2.39,0 -3.51,-0.29 -1.48,0 -2.6,-0.3 -3.81,-0.89 -1.18,-0.23 -2.3,-0.83 -3.49,-1.12 -0.91,-0.6 -2.03,-1.19 -2.92,-2.1 -1.19,-0.51 -2.01,-1.41 -2.9,-2.3 -0.91,-0.89 -1.74,-1.71 -2.62,-2.62 -0.59,-1.19 -1.5,-2.01 -2.01,-3.2zm-680.34 -250.34l55.14 -330.84c0.3,-0.89 0.3,-1.5 0.51,-2.31 0.3,-0.91 0.59,-1.5 0.91,-2.32 0.29,-0.59 0.59,-1.48 0.89,-2.1 0.3,-0.89 0.89,-1.42 1.19,-2.31 0.23,-0.6 0.82,-1.19 1.41,-1.8 0.3,-0.81 0.91,-1.42 1.51,-2.01 0.53,-0.6 1.12,-1.19 1.71,-1.42 0.6,-0.59 1.21,-1.18 1.72,-1.79 0.91,-0.3 1.5,-0.89 2.09,-1.1 0.89,-0.32 1.42,-0.91 2.31,-1.21 0.62,-0.3 1.51,-0.59 2.03,-0.89 0.89,-0.3 1.78,-0.3 2.37,-0.6 0.82,-0.31 1.73,-0.31 2.32,-0.31 0.89,-0.21 1.71,-0.21 2.6,-0.21 0.61,0 1.5,0 2.33,0 0.89,0 1.48,0 2.39,0.21 2.01,0.31 3.72,0.91 5.52,1.5 1.71,0.89 3.49,1.71 4.9,2.92 1.5,1.19 2.92,2.61 4.1,4.1 1.44,1.42 2.33,2.9 3.22,4.61l150.95 299.37c0.59,0.89 0.89,1.48 1.19,2.31 0.3,0.59 0.61,1.5 0.61,2.31 0.3,0.61 0.59,1.5 0.59,2.39 0.21,0.61 0.21,1.42 0.21,2.33 0,0.59 0.3,1.42 0,2.31 0,0.89 0,1.5 0,2.31 0,0.91 -0.21,1.8 -0.51,2.39 0,0.82 -0.3,1.72 -0.61,2.33 -0.3,0.89 -0.6,1.48 -0.89,2.31 -0.3,0.59 -0.59,1.5 -0.89,2.09 -0.53,0.83 -0.82,1.42 -1.41,2.01 -0.3,0.89 -0.91,1.41 -1.5,2.01 -0.53,0.61 -1.12,1.21 -1.72,1.8 -0.59,0.53 -1.18,0.82 -1.8,1.42 -0.51,0.59 -1.12,0.89 -2.01,1.5 -0.59,0.3 -1.19,0.8 -2.01,1.12 -2.39,1.18 -4.7,2.07 -7.32,2.37l-206.09 31.43c-0.8,0 -1.71,0 -2.3,0.29 -0.89,0 -1.71,0 -2.6,0 -0.61,-0.29 -1.5,-0.29 -2.32,-0.29 -0.89,-0.23 -1.48,-0.23 -2.39,-0.53 -0.8,0 -1.42,-0.3 -2.31,-0.59 -0.59,-0.3 -1.42,-0.61 -2.31,-0.91 -0.61,-0.3 -1.2,-0.89 -2.03,-1.12 -0.59,-0.59 -1.18,-0.89 -2.07,-1.48 -0.61,-0.3 -1.12,-0.89 -1.73,-1.5 -0.6,-0.51 -1.19,-1.12 -1.78,-1.71 -0.52,-0.59 -1.12,-1.19 -1.41,-1.71 -0.6,-0.6 -0.91,-1.5 -1.5,-2.1 -0.3,-0.59 -0.82,-1.42 -1.12,-2.01 -0.3,-0.89 -0.59,-1.5 -0.89,-2.31 -0.3,-0.61 -0.6,-1.5 -0.6,-2.39 -0.29,-0.53 -0.59,-1.42 -0.59,-2.32 -0.31,-2.6 -0.31,-4.91 0,-7.53zm-739.74 333.08c-2.01,45.22 -13.35,86.04 -34.09,122.44 -27.69,48.43 -68.19,82.74 -122.06,103.2 -60.68,22.99 -121.85,12.84 -183.63,-30.59 -59.18,-41.71 -104.99,-104.99 -136.99,-189.15 -31.79,-82.83 -38.81,-157.44 -21.57,-223.63 17.47,-67.89 56.49,-113.05 116.54,-136.1 51.65,-19.46 102.01,-20.37 151.25,-2.6 40.29,14.55 75.5,39.91 105.29,76.1l155.06 -58.86 -119.25 -312.5 -162.95 62.1 20.14 52.45c0.3,0.89 0.59,1.48 0.89,2.31 0,0.89 0.32,1.5 0.61,2.39 0,0.83 0,1.42 0,2.31 0.21,0.91 0.21,1.72 0.21,2.33 0,0.89 -0.21,1.78 -0.21,2.6 0,0.6 -0.29,1.5 -0.29,2.39 -0.32,0.53 -0.62,1.42 -0.91,2.31 -0.3,0.61 -0.59,1.42 -0.89,2.03 -0.29,0.89 -0.59,1.48 -0.89,2.31 -0.53,0.59 -0.83,1.19 -1.42,2.1 -0.32,0.59 -0.91,1.12 -1.5,1.71 -0.53,0.59 -1.12,1.18 -1.71,1.8 -0.59,0.51 -1.21,1.1 -1.71,1.42 -0.59,0.59 -1.21,1.18 -2.1,1.48 -0.59,0.59 -1.12,0.83 -2.01,1.12 -0.61,0.3 -1.5,0.89 -2.03,1.19 -1.78,0.61 -3.19,0.91 -4.69,1.21 -1.71,0.29 -3.19,0.29 -4.93,0.29 -1.48,0 -3.19,-0.29 -4.7,-0.59 -1.42,-0.3 -3.22,-0.91 -4.63,-1.5 -83.42,-37.61 -167.34,-40.21 -251.52,-8.12 -121.02,46.02 -206.39,131.18 -256.52,255.04 -50.45,124.45 -50.74,252.12 -0.91,382.7 54.85,143.63 142.01,243.32 261.76,298.96 123.27,57.47 260.26,57.47 410.69,0 191.22,-72.82 300.17,-197.86 327.03,-375.38l-225.34 -47.23zm-1495.5 846.73l50.45 65.59c0.59,0.91 0.88,1.5 1.48,2.01 0.3,0.91 0.53,1.51 1.12,2.1 0.3,0.82 0.6,1.42 0.89,2.33 0.31,0.89 0.61,1.42 0.61,2.31 0.3,0.59 0.59,1.5 0.59,2.3 0.3,0.92 0.3,1.51 0.3,2.39 0,0.82 0,1.72 0,2.33 0,0.89 0,1.72 0,2.6 -0.3,0.59 -0.3,1.5 -0.59,2.3 -0.3,0.62 -0.3,1.51 -0.6,2.39 -0.31,0.53 -0.61,1.42 -0.91,2.03 -0.3,0.89 -0.89,1.42 -1.12,2.31 -0.3,0.59 -0.89,1.18 -1.19,1.8 -0.59,0.81 -1.21,1.42 -1.79,2.01 -0.21,0.59 -0.83,1.19 -1.42,1.71 -0.59,0.59 -1.19,0.89 -2.01,1.5l-145.79 111.61c-0.53,0.59 -1.12,0.89 -1.71,1.5 -0.91,0.21 -1.44,0.8 -2.33,1.12 -0.59,0.29 -1.48,0.59 -2.1,0.89 -0.8,0.29 -1.41,0.59 -2.3,0.89 -0.83,0 -1.42,0.29 -2.31,0.29 -0.91,0.23 -1.71,0.23 -2.32,0.23 -0.89,0.3 -1.78,0.3 -2.6,0.3 -0.6,-0.3 -1.51,-0.3 -2.39,-0.3 -0.59,-0.23 -1.42,-0.23 -2.31,-0.52 -0.61,0 -1.41,-0.3 -2.33,-0.6 -0.59,-0.29 -1.48,-0.59 -2.1,-0.89 -0.8,-0.29 -1.41,-0.61 -2.3,-1.21 -0.59,-0.21 -1.12,-0.83 -2.01,-1.12 -0.59,-0.59 -1.21,-1.18 -1.8,-1.48 -0.53,-0.6 -1.12,-1.12 -1.71,-1.72 -0.59,-0.61 -1.18,-1.21 -1.5,-1.8 -0.8,-0.83 -1.42,-2.01 -2.01,-2.92 -20.96,-36.99 -28.28,-83.93 -22.17,-140.19 3.81,-32.32 15.17,-83.36 34.41,-152.96 24.76,-89.77 38.2,-156.85 39.91,-201.17 3.22,-71.7 -14.85,-132.6 -53.34,-183.04 -50.06,-65.59 -115.95,-100.51 -197.59,-104.61 -84.84,-4.1 -169.29,26.21 -253.83,90.97 -76.71,58.57 -126.86,127.67 -150.13,206.6 -20.16,69.1 -17.77,138.18 7,206.98l199.39 -71.17c-15.23,-30.31 -23.67,-59.71 -25.68,-87.69 -2.9,-44.31 10.45,-78.11 40.82,-101.17 25.06,-19.24 51.86,-26.5 80.43,-21.87 28.58,4.7 53.05,20.45 73.71,47.53 22.16,28.89 31.49,70.82 28.57,126.19 -1.71,31.49 -10.22,84.54 -24.77,159.16 -22.16,111.61 -32.91,195.86 -32.38,252.41 0.89,94.46 25.36,172.8 72.91,234.88l45.72 59.77 574.47 -439.77 -152.45 -199.09 -148.92 113.94z"/>
   <path class="fil1" d="M7213.5 0c-977.69,0 -1913.76,189.01 -2808.15,567.31 -863.24,365.27 -1627.47,880.47 -2292.66,1545.38 -664.91,665.19 -1180.11,1429.42 -1545.38,2292.66 -378.31,894.39 -567.31,1830.47 -567.31,2808.15 0,977.68 189.01,1913.75 567.31,2808.15 365.27,863.24 880.47,1627.47 1545.38,2292.66 665.19,664.91 1429.42,1180.11 2292.66,1545.38 894.39,378.31 1830.47,567.31 2808.15,567.31 977.68,0 1914.05,-189.01 2808.15,-567.31 863.24,-365.27 1627.47,-880.47 2292.66,-1545.38 664.91,-665.19 1180.11,-1429.42 1545.38,-2292.66 378.31,-894.39 567.31,-1830.47 567.31,-2808.15 0,-977.68 -189.01,-1913.76 -567.31,-2808.15 -365.27,-863.24 -880.47,-1627.47 -1545.38,-2292.66 -665.19,-664.91 -1429.42,-1180.11 -2292.66,-1545.38 -894.39,-378.31 -1830.47,-567.31 -2808.15,-567.31zm-4363.55 9869.56c8.4,-5.41 16.42,-7.46 24.25,-6.28 7.83,1.18 14.68,6.11 20.35,14.91l247.04 383.86c17.76,27.6 30.7,56.05 38.8,85.35 8.11,29.3 11.92,58.52 11.65,87.55 -0.28,29.03 -4.31,57.93 -12.35,86.31 -8.25,28.5 -19.37,55.18 -33.83,80.61 -14.27,25.3 -31.21,48.65 -51.34,70.1 -19.94,21.32 -42.22,39.9 -66.62,55.6 -36.01,23.17 -75.53,39.56 -118.3,48.69 -42.77,9.14 -85.55,10.37 -127.8,3.61 -42.25,-6.75 -82.59,-21.52 -120.82,-44.44 -38.23,-22.92 -70.78,-54.59 -97.44,-95.14l-117.02 -181.83 -285.04 183.44c-17.2,11.07 -31.73,7.41 -43.57,-11l-115.09 -178.83c-5.15,-8 -7.07,-15.82 -5.96,-23.32 1.11,-7.5 5.97,-14.02 14.77,-19.69l838.32 -539.52zm27.75 622.01c12,-7.73 22.72,-17.45 32.01,-29.38 9.3,-11.92 16.11,-25.08 20.36,-39.13 4.25,-14.05 5.67,-28.55 4.34,-43.81 -1.34,-15.26 -6.7,-30.2 -15.97,-44.6l-81.88 -127.22 -200.43 128.99 81.88 127.22c9.27,14.4 20.64,25.47 33.9,33.34 13.27,7.87 26.98,12.91 41.2,14.79 14.22,1.88 28.69,1.06 43.39,-2.47 14.7,-3.52 28.4,-9.5 41.2,-17.74zm511.14 174.24c7.25,-6.88 14.74,-10.39 22.66,-10.69 7.92,-0.3 15.56,3.27 22.77,10.86l317.38 334.35c33.74,35.54 58.61,75.22 74.81,118.89 16.19,43.66 23.96,87.78 23.14,132.51 -0.83,44.74 -10.21,88.41 -28.14,130.68 -17.93,42.27 -44.31,79.78 -78.81,112.53 -23.46,22.27 -48.84,40.46 -76.12,54.21 -27.28,13.76 -55.64,23.62 -84.91,29.76 -29.27,6.13 -58.78,8.56 -88.69,7.11 -29.91,-1.46 -59.23,-6.42 -87.61,-14.9l-123.92 371.49c-2.54,7 -5.28,15.51 -8.24,25.53 -2.95,10.02 -6.85,17.32 -11.68,21.91 -5.52,5.24 -11.3,7.45 -17.67,6.61 -6.37,-0.84 -12.67,-4.37 -18.57,-10.58l-169.01 -178.05c-5.57,-5.86 -8.76,-12.68 -9.73,-20.61 -0.97,-7.93 0.74,-15.46 5.3,-22.41l117.47 -349.95 -79.43 -83.67 -233.43 221.57c-14.83,14.08 -29.79,13.19 -44.85,-2.68l-146.41 -154.24c-6.55,-6.9 -9.89,-14.22 -10.2,-21.8 -0.31,-7.58 3.25,-14.89 10.84,-22.1l723.05 -686.34zm153.88 623.37c10.35,-9.83 18.9,-21.55 25.65,-35.17 6.75,-13.63 11.16,-27.98 13.4,-42.89 2.08,-15.09 1.46,-30.25 -1.84,-45.48 -3.14,-15.06 -9.5,-29.36 -18.91,-42.73 -8.32,-10.14 -16.31,-19.94 -23.65,-28.72 -7.5,-8.95 -16.01,-18.25 -25.51,-28.26l-67.47 -71.08 -189.95 180.3 89.91 94.72c5.9,6.21 11.31,11.57 16.24,16.07 4.93,4.5 10.36,9.19 16.62,14.4 12.84,10.77 26.78,18.2 41.48,22.28 14.86,4.26 29.63,5.65 44.31,4.18 14.51,-1.64 28.75,-5.65 42.55,-12.19 13.8,-6.54 26.14,-14.97 37.18,-25.45zm528.96 84.37c5.78,-8.15 12.64,-12.91 20.55,-14.6 7.9,-1.69 15.9,0.19 24.05,5.96l578.24 409.62c8.54,6.05 13.35,13.25 14.43,21.6 1.08,8.35 -1.4,16.79 -7.45,25.33l-102.3 144.41c-4.68,6.6 -11.4,11.16 -20.33,13.88 -8.92,2.72 -17.92,1.01 -26.84,-5.31l-377.35 -267.3 -102.3 144.41 291.16 206.25c7.37,5.22 12.35,11.37 14.73,18.3 2.38,6.93 0.58,14.4 -5.19,22.56l-89.51 126.36c-3.85,5.43 -9.7,9.16 -17.54,11.18 -7.85,2.02 -15.85,0.15 -24,-5.63l-291.74 -206.67 -104.77 147.91 391.32 277.2c17.47,12.38 19.88,27.49 7.23,45.35l-103.95 146.74c-2.75,3.88 -6.78,6.28 -12.08,7.18 -9.25,9.77 -21.06,9.57 -35.42,-0.61l-589.31 -417.45c-7.76,-5.5 -12.46,-12.04 -14.23,-19.41 -1.77,-7.38 0.3,-15.24 6.35,-23.78l576.26 -813.5zm810.9 572.79c4.29,-7.47 10.29,-12.9 18,-16.29 7.7,-3.39 16.35,-3 25.95,1.19l226.36 98.62c16.14,7.03 23,19.88 20.57,38.54l-81.05 672 438.25 -516.38c13.33,-13.91 28.06,-17.35 44.2,-10.32l223.74 97.48c7.85,3.42 13.81,9.39 17.76,17.6 3.95,8.21 4.49,16.49 1.75,25.15 -51.72,160.4 -102.43,319.67 -152.35,477.73 -49.92,158.06 -100.85,317.24 -152.57,477.63l-1.43 3.27c-7.41,17.01 -20.71,21.33 -39.9,12.97l-185.15 -80.66c-20.07,-8.74 -26.35,-22.9 -18.86,-42.47l163.6 -530.95 -368.86 444.64c-2.77,3.99 -8.1,7.89 -16.22,11.62 -8.11,3.73 -14.89,4.41 -20.13,2.13l-172.06 -74.96c-5.23,-2.28 -9.36,-7.71 -12.68,-16.16 -3.32,-8.45 -4.31,-15.11 -2.66,-20.1l73.89 -571.59 -276.87 480.05c-9.23,18.81 -24.1,23.75 -44.6,14.82l-185.15 -80.66c-18.76,-8.17 -23.95,-21.85 -15.59,-41.04l492.02 -873.85zm1184.46 456.35c1.66,-8.4 5.65,-15.13 11.98,-20.18 6.33,-5.06 14.63,-6.57 24.9,-4.54l206.54 40.75c7,1.38 13.92,5.66 20.75,12.82 6.83,7.17 9.32,15.42 7.48,24.75l-193.14 978.77c-4.05,20.54 -17.51,28.55 -40.39,24.04l-206.54 -40.76c-20.54,-4.05 -28.78,-16.35 -24.73,-36.89l193.14 -978.77zm759.72 733.84c-0.98,35.19 3.17,65.29 12.24,90.05 9.06,24.76 21.35,45.1 36.85,61 15.5,15.9 33.73,27.83 54.69,35.55 20.96,7.73 42.74,11.91 65.57,12.54 23.78,0.66 46.49,-2.98 67.88,-10.72 21.39,-7.73 40.29,-19.58 56.67,-35.54 16.39,-15.96 29.57,-36.06 39.51,-60.06 9.95,-23.99 15.25,-51.69 16.12,-83.08l16.93 -606.1c0.24,-8.56 3.54,-15.85 9.65,-21.86 6.12,-6.02 14.05,-8.89 24.04,-8.61l209.01 5.84c10.94,0.31 19.4,3.87 25.41,10.46 6,6.6 8.9,13.82 8.67,21.9l-16.82 602.3c-2.33,83.22 -16.64,152.78 -42.72,208.93 -26.07,55.91 -60.16,100.65 -102.5,133.97 -42.57,33.32 -91.06,56.71 -145.93,70.17 -55.11,13.45 -112.39,19.47 -172.31,17.8 -60.16,-1.68 -117.24,-11.13 -171.5,-28.11 -54.26,-16.98 -101.58,-43.53 -142.22,-79.64 -40.4,-36.11 -71.93,-82.92 -94.85,-139.96 -22.92,-57.04 -33.35,-126.58 -31.07,-208.37l16.83 -602.3c0.23,-8.08 3.28,-15.14 8.93,-21.4 5.65,-6.27 12.4,-9.41 20.49,-9.18l214 5.98c7.14,0.2 14.66,3.51 22.34,9.67 7.68,6.16 11.28,13.64 11.03,22.68l-16.93 606.1zm860.8 -601.16c-0.72,-8.58 1.12,-16.46 5.52,-23.64 4.4,-7.17 11.74,-11.77 22.01,-13.8l242.24 -47.8c17.27,-3.4 30.22,3.25 38.86,19.98l315.96 598.6 66.3 -674.03c3.04,-19.02 13.19,-30.24 30.46,-33.65l239.44 -47.25c8.4,-1.66 16.7,-0.14 24.62,4.35 7.92,4.5 13.08,11 15.76,19.68 48.8,161.31 97.79,321.12 146.74,479.49 48.95,158.36 97.71,318.22 146.51,479.53l0.69 3.5c3.59,18.2 -4.88,29.33 -25.42,33.39l-198.13 39.1c-21.47,4.24 -34.7,-3.82 -39.69,-24.18l-167.79 -529.64 -50.09 575.54c-0.01,4.85 -2.18,11.1 -6.72,18.78 -4.54,7.69 -9.73,12.1 -15.34,13.21l-184.13 36.33c-5.6,1.11 -12.08,-1.01 -19.63,-6.07 -7.54,-5.06 -12.15,-9.97 -13.63,-15.01l-264.69 -511.98 45.7 552.28c3.12,20.72 -6.29,33.25 -28.23,37.58l-198.13 39.1c-20.07,3.96 -32.13,-4.33 -36.18,-24.87l-93.02 -998.52zm1662.6 -487.2c-5.36,-8.43 -7.16,-16.59 -5.73,-24.55 1.43,-7.95 6.2,-14.65 14.63,-20l400.35 -254.36c35.34,-22.45 73,-36.8 112.87,-43.24 39.87,-6.45 79.11,-5.45 117.52,3.11 38.42,8.57 74.56,24.21 108.25,47.06 33.68,22.85 62.06,52.44 85.03,88.58 19.13,30.12 32.37,61.16 39.4,93.06 7.02,31.9 8.24,63.53 3.98,94.98 45.75,8.13 88.99,25.19 129.48,50.76 40.49,25.57 73.74,58.84 99.76,99.79 23.22,36.54 38.26,75.74 45,117.4 6.74,41.65 5.91,82.49 -2.3,122.36 -8.4,40.01 -23.81,77.41 -46.75,112.28 -22.74,34.74 -51.88,63.4 -87.22,85.85l-436.69 277.45c-8.03,5.1 -15.86,6.98 -23.36,5.82 -7.5,-1.15 -13.99,-6.05 -19.6,-14.88l-534.61 -841.46zm860.57 279.27c-7.65,-12.05 -17.72,-22.56 -29.99,-31.68 -12.27,-9.12 -25.59,-15.87 -39.81,-20.08 -14.23,-4.21 -29.12,-5.46 -44.39,-4.21 -15.27,1.25 -29.63,6.14 -42.88,14.56l-159.82 101.54 127.82 201.18 159.82 -101.54c13.25,-8.42 23.71,-19.01 31.59,-31.9 7.67,-12.76 12.66,-26.64 15.1,-41.44 2.64,-14.92 2.31,-29.65 -0.73,-44.63 -3.03,-14.98 -8.53,-28.96 -16.7,-41.81zm-255.25 -329.89c-7.65,-12.05 -17.01,-21.89 -28.06,-29.52 -11.05,-7.63 -23.14,-12.91 -36.28,-15.84 -13.13,-2.93 -27.05,-3.11 -41.23,-0.58 -14.18,2.52 -27.83,8.1 -41.08,16.52l-129.3 82.15 110.98 174.68 127.49 -81c13.65,-8.67 24.9,-18.92 33.66,-30.41 8.76,-11.49 14.78,-23.76 17.83,-36.69 3.06,-12.93 3.41,-26.12 1.27,-39.7 -2.14,-13.58 -7.13,-26.75 -15.29,-39.6zm227.19 -476.74c-6.91,-7.22 -10.28,-14.86 -10.43,-22.95 -0.16,-8.08 3.2,-15.58 10.42,-22.48l342.66 -327.97c30.24,-28.95 64.36,-50.41 102.19,-64.55 37.83,-14.14 76.5,-20.87 115.85,-20.01 39.35,0.86 77.87,9.11 115.38,24.9 37.51,15.79 71.15,39.24 100.75,70.18 24.67,25.78 43.75,53.62 56.89,83.52 13.14,29.9 20.54,60.68 22.54,92.35 46.46,-1 92.21,7.24 136.92,24.36 44.72,17.13 83.85,43.23 117.4,78.28 29.94,31.28 52.38,66.76 67.16,106.29 14.78,39.52 21.98,79.72 21.76,120.43 -0.39,40.88 -8.16,80.58 -23.81,119.27 -15.48,38.52 -38.43,72.34 -68.67,101.29l-373.76 357.74c-6.88,6.58 -14.18,9.95 -21.76,10.29 -7.58,0.34 -14.9,-3.19 -22.14,-10.75l-689.33 -720.2zm898.64 104.98c-9.87,-10.31 -21.8,-18.65 -35.62,-25.18 -13.82,-6.53 -28.2,-10.54 -42.98,-11.88 -14.78,-1.33 -29.62,0.36 -44.35,4.58 -14.73,4.22 -27.85,11.84 -39.19,22.69l-136.79 130.92 164.81 172.19 136.79 -130.92c11.34,-10.86 19.52,-23.3 24.71,-37.48 5.01,-14.02 7.19,-28.61 6.67,-43.6 -0.34,-15.15 -3.56,-29.52 -9.47,-43.61 -5.91,-14.09 -14.05,-26.72 -24.58,-37.72zm-315.02 -273.4c-9.87,-10.31 -20.97,-18.13 -33.3,-23.44 -12.33,-5.32 -25.23,-8.12 -38.68,-8.42 -13.45,-0.3 -27.14,2.26 -40.54,7.52 -13.41,5.26 -25.7,13.4 -37.04,24.26l-110.66 105.92 143.1 149.51 109.12 -104.44c11.68,-11.18 20.71,-23.44 27.04,-36.42 6.34,-12.99 9.83,-26.2 10.29,-39.48 0.46,-13.28 -1.78,-26.29 -6.55,-39.18 -4.77,-12.89 -12.24,-24.83 -22.77,-35.83zm521.98 -182.04c-41.1,-29.23 -76.73,-62.45 -107.28,-99.94 -30.36,-37.35 -55.22,-77.5 -74.44,-120.66 -19.36,-42.96 -33.06,-87.73 -41.04,-133.97 -7.97,-46.25 -9.67,-92.7 -5.43,-139.3 4.38,-46.79 14.55,-92.69 30.91,-138.27 16.22,-45.38 38.92,-88.79 68.28,-130.08 28.95,-40.71 62.37,-76.2 100.19,-106.8 37.68,-30.41 77.84,-55.27 120.6,-74.77 42.63,-19.31 87.06,-32.95 133.64,-40.98 46.44,-7.84 93.22,-9.59 140.02,-5.21 46.8,4.38 92.89,14.69 138.27,30.91 45.58,16.36 88.79,38.92 129.88,68.15 52.34,37.22 96.42,81.13 131.73,131.63 35.44,50.31 61.35,103.77 78.11,160.64 16.57,56.74 23.52,115.09 20.85,175.08 -2.67,59.98 -15.85,118.33 -39.21,174.98l157.79 112.22c17.06,12.13 18.97,27.5 5.73,46.11l-122.42 172.14c-12.13,17.06 -26.72,19.52 -43.78,7.39l-158.96 -113.05c-45.82,39.8 -96.11,70.3 -151.35,91.73 -55.1,21.24 -112.09,33.25 -170.37,35.58 -58.43,2.52 -116.81,-4.85 -175.31,-21.93 -58.49,-17.08 -114.1,-44.37 -166.44,-81.59zm159.7 -226.19c32.18,22.89 66.09,38.83 101.72,47.82 35.63,9 70.62,11.11 105.29,6.28 34.67,-4.83 67.35,-16.32 98.2,-34.66 30.85,-18.34 57.82,-43.53 80.7,-75.71 22.75,-31.98 37.83,-65.92 45.03,-101.08 7.34,-35.36 7.6,-70.2 0.78,-104.53 -6.82,-34.33 -20.29,-66.68 -40.49,-97.39 -20.19,-30.71 -46.38,-57.5 -78.56,-80.39 -31.79,-22.61 -65.7,-38.55 -101.53,-47.69 -35.83,-9.14 -71.01,-11.39 -105.87,-6.7 -34.86,4.69 -67.88,16.23 -99.06,34.63 -31.04,18.2 -58.14,43.59 -80.89,75.57 -22.89,32.18 -37.83,65.92 -44.84,101.22 -7.01,35.3 -6.94,70.09 0.07,104.55 7.01,34.46 20.68,66.96 41.07,97.81 20.39,30.84 46.57,57.64 78.36,80.25zm-7507.73 -7003.92c-883.66,883.6 -1335.32,1946.35 -1355.15,3187.9l-2413.82 0c10.74,-923.77 195.41,-1809.16 553.66,-2656.36 356.46,-842.57 859.14,-1588.75 1508.61,-2238.24 649.49,-649.47 1395.66,-1152.15 2238.24,-1508.6 873.15,-369.28 1787.01,-553.96 2741.72,-553.96 954.71,0 1868.57,184.67 2741.72,553.96 842.57,356.46 1588.75,859.14 2238.24,1508.6 649.47,649.49 1152.15,1395.66 1508.61,2238.24 358.25,847.2 542.93,1732.59 553.37,2656.36l-2413.53 0c-19.82,-1241.55 -471.49,-2304.3 -1355.17,-3187.9 -903.71,-904.01 -1994.93,-1356.06 -3273.24,-1356.06 -1278.31,0 -2369.52,452.05 -3273.26,1356.06zm3273.26 -1185.1c1231.11,0 2281.86,435.44 3152.39,1305.97 870.53,870.53 1305.97,1921.28 1305.97,3152.39 0,1231.11 -435.44,2281.86 -1305.97,3152.39 -870.53,870.53 -1921.28,1305.97 -3152.39,1305.97 -1231.11,0 -2281.86,-435.43 -3152.39,-1305.97 -870.53,-870.53 -1305.97,-1921.28 -1305.97,-3152.39 0,-1231.11 435.44,-2281.86 1305.97,-3152.39 870.53,-870.53 1921.28,-1305.97 3152.39,-1305.97z"/>
   <path class="fil3" d="M5557.19 3316.63c-509.14,215.25 -960.07,519.4 -1352.62,911.94 -392.56,392.57 -696.68,843.5 -911.96,1352.61 -222.85,527.23 -334.62,1079.39 -334.62,1656.34 0,577.25 111.76,1129.34 334.62,1656.31 215.28,509.13 519.4,960.05 911.96,1352.61 188.2,188.22 389.7,355.97 604.66,503.43l-8.64 -30.57 -2.54 -9.22 -21.03 -86.97 -1.87 -9.87 -17.86 -87.87 -1.87 -9.54 -3.81 -24.52c-148.11,-112.41 -288.8,-235.33 -422.56,-369.02 -376.67,-376.67 -668.01,-808.75 -874.3,-1296.93 -213.66,-505.3 -320.68,-1034.47 -320.68,-1587.85 0,-553.38 107.03,-1082.57 320.68,-1587.85 206.29,-487.85 497.63,-920.28 874.3,-1296.63 376.32,-376.35 808.42,-667.99 1296.6,-874.3 444.16,-187.88 906.81,-292.96 1388.22,-315.86l115.92 -179.9c-546.71,10.19 -1071.16,121.63 -1572.6,333.65z"/>
   <path class="fil3" d="M8869.82 3316.63c509.14,215.25 960.07,519.4 1352.62,911.94 392.56,392.57 696.68,843.5 911.96,1352.61 222.85,527.23 334.62,1079.39 334.62,1656.34 0,577.25 -111.76,1129.34 -334.62,1656.31 -215.28,509.13 -519.4,960.05 -911.96,1352.61 -203.45,203.79 -422.79,383.67 -657.8,539.36l14.03 -37.57 7.58 -21.93 28.7 -85.01 2.52 -7.67 26.09 -85.68 2.29 -7.9 8.87 -32.86c155.36,-116.48 303.15,-245.17 443.26,-384.9 376.67,-376.67 668.01,-808.75 874.3,-1296.93 213.66,-505.3 320.68,-1034.47 320.68,-1587.85 0,-553.38 -107.03,-1082.57 -320.68,-1587.85 -206.29,-487.85 -497.63,-920.28 -874.3,-1296.63 -376.32,-376.35 -808.42,-667.99 -1296.6,-874.3 -155.04,-65.62 -312.6,-121.37 -472.45,-166.52l-99.35 -208.6c217.47,53.49 430.78,124.47 640.26,213.01z"/>
  </g>
 </g>
</svg>
